:SAMPLES-PER-SECOND 30
:FULLY-SPECIFIED
:DEGREES
506
root  -0.104243 39.2365 15.7541 -174.273 9.02065 179.777
RightUpLeg  -23.3641 8.20639 -6.18823
RightLeg  19.8122 5.92627 2.15418
RightFoot  -1.69346 -0.31379 3.58669
RightToes  -5.8209e-011 0 -3.6325e-017
Spine  39.7946 0.487357 -0.238524
Spine1  7.98793 0.768916 -1.31418
HEad  9.31321 -0.990775 -0.828487
LeftShoulder1  6.69375 -16.7238 -26.9515
LeftArm  -3.57566 -44.2056 -74.7899
LeftForeArm  62.1017 4.90782 0.598998
LeftHand  -0.246645 0.021 5.37786
RightShoulder  9.42346 17.5029 38.7386
RightArm  -6.13172 40.721 53.1948
RightForeArm  19.1081 -1.16153 8.93881
RightHand  -0.24729 -0.0210522 -5.37781
LeftUpLeg  -18.0219 17.2374 8.34616
LeftLeg  17.7658 1.27011 0.722424
LeftFoot  -1.70074 0.87514 -10.2377
LeftToes  -7.45818e-011 -3.37383e-011 1.08613e-011
507
root  -0.0808266 39.2207 15.7608 -174.396 9.64478 179.873
RightUpLeg  -23.4041 8.75446 -6.0525
RightLeg  19.9289 5.98025 2.18964
RightFoot  -1.66935 -0.308059 3.5126
RightToes  -5.8209e-011 0 -3.6325e-017
Spine  39.9434 0.369983 -1.11697
Spine1  7.80144 0.28734 -1.27493
HEad  9.24923 0.216828 -0.865833
LeftShoulder1  6.66239 -16.7186 -26.7998
LeftArm  -3.07517 -44.878 -74.9362
LeftForeArm  63.5864 4.8698 0.516846
LeftHand  -0.246645 0.021 5.37786
RightShoulder  9.40746 17.4713 38.7308
RightArm  -6.49683 40.7817 53.2369
RightForeArm  18.3638 -0.767697 8.79415
RightHand  -0.24729 -0.0210522 -5.37781
LeftUpLeg  -17.8317 17.6508 8.57464
LeftLeg  18.0428 1.38453 0.798757
LeftFoot  -1.9123 0.870202 -10.3925
LeftToes  -7.45818e-011 -3.37383e-011 1.08613e-011
508
root  -0.0674377 39.2082 15.7576 -174.564 10.2446 179.902
RightUpLeg  -23.3843 9.1381 -5.97461
RightLeg  20.0541 6.16222 2.27798
RightFoot  -1.67055 -0.303553 3.45803
RightToes  -5.8209e-011 0 -3.6325e-017
Spine  40.0953 0.172944 -2.01399
Spine1  7.62776 -0.256576 -1.36733
HEad  9.17358 1.37519 -0.910001
LeftShoulder1  6.61818 -16.7066 -26.5936
LeftArm  -2.59058 -45.5852 -75.0905
LeftForeArm  65.2148 4.82051 0.462978
LeftHand  -0.246645 0.021 5.37786
RightShoulder  9.45719 17.4637 38.9738
RightArm  -6.8141 40.8118 53.0365
RightForeArm  17.2865 -0.164675 8.72608
RightHand  -0.24729 -0.0210522 -5.37781
LeftUpLeg  -17.5647 18.0734 8.72735
LeftLeg  18.2636 1.47358 0.854786
LeftFoot  -2.11076 0.863329 -10.5166
LeftToes  -7.45818e-011 -3.37383e-011 1.08613e-011
509
root  -0.0663992 39.1995 15.7443 -174.752 10.9138 179.791
RightUpLeg  -23.3831 9.35629 -6.03476
RightLeg  20.221 6.54973 2.45586
RightFoot  -1.69141 -0.299537 3.41231
RightToes  -5.8209e-011 0 -3.6325e-017
Spine  40.2012 -0.0414796 -3.03367
Spine1  7.46845 -0.847034 -1.54387
HEad  9.11102 2.58739 -1.03451
LeftShoulder1  6.59396 -16.6995 -26.4812
LeftArm  -2.02588 -46.358 -75.138
LeftForeArm  66.8093 4.78467 0.329843
LeftHand  -0.246645 0.021 5.37786
RightShoulder  9.52722 17.4787 39.2621
RightArm  -7.18949 40.8017 52.8124
RightForeArm  16.1891 0.582706 8.65156
RightHand  -0.24729 -0.0210522 -5.37781
LeftUpLeg  -17.207 18.3669 8.73526
LeftLeg  18.3728 1.74974 0.965708
LeftFoot  -2.2893 0.85803 -10.6441
LeftToes  -7.45818e-011 -3.37383e-011 1.08613e-011
510
root  -0.0609343 39.1879 15.7274 -174.878 11.7442 179.695
RightUpLeg  -23.4801 9.68808 -6.08483
RightLeg  20.4018 6.97466 2.65347
RightFoot  -1.69528 -0.294053 3.34587
RightToes  -5.8209e-011 0 -3.6325e-017
Spine  40.1841 -0.172532 -4.16668
Spine1  7.37372 -1.38974 -1.68828
HEad  9.03118 3.96127 -1.19007
LeftShoulder1  6.58327 -16.6938 -26.436
LeftArm  -1.28262 -47.2386 -75.1658
LeftForeArm  68.2578 4.77302 0.0799761
LeftHand  -0.246645 0.021 5.37786
RightShoulder  9.54701 17.4801 39.3493
RightArm  -7.68722 40.8816 52.8039
RightForeArm  15.2856 1.24428 8.48646
RightHand  -0.24729 -0.0210522 -5.37781
LeftUpLeg  -16.8714 18.6804 8.77001
LeftLeg  18.5075 2.15235 1.12473
LeftFoot  -2.5051 0.851435 -10.8025
LeftToes  -7.45818e-011 -3.37383e-011 1.08613e-011
511
root  -0.0438654 39.1709 15.7088 -174.914 12.695 179.738
RightUpLeg  -23.6524 10.2318 -5.99934
RightLeg  20.5523 7.32313 2.81825
RightFoot  -1.67084 -0.286384 3.24851
RightToes  -5.8209e-011 0 -3.6325e-017
Spine  40.0265 -0.242289 -5.30039
Spine1  7.36523 -1.85445 -1.80858
HEad  8.90855 5.40069 -1.28524
LeftShoulder1  6.56262 -16.6965 -26.3253
LeftArm  -0.551039 -48.1719 -75.2904
LeftForeArm  69.6717 4.75368 -0.123599
LeftHand  -0.246645 0.021 5.37786
RightShoulder  9.5175 17.446 39.2862
RightArm  -8.19442 41.0859 52.9494
RightForeArm  14.3984 1.81275 8.28704
RightHand  -0.24729 -0.0210522 -5.37781
LeftUpLeg  -16.6296 19.2013 8.95577
LeftLeg  18.7697 2.47421 1.26447
LeftFoot  -2.78296 0.840396 -10.9841
LeftToes  -7.45818e-011 -3.37383e-011 1.08613e-011
